# xmcd CD database file
#
# Track frame offsets:
#	150
#	5888
#	23393
#	41790
#	58900
#	79515
#	101825
#	121808
#	141018
#	163563
#	182328
#
# Disc length: 2657 seconds
#
# Revision: 1
# Processed by: cddbd v1.5.2PL0 Copyright (c) Steve Scherf et al.
# Submitted via: CDex 1.70beta2
#
DISCID=850a5f0b
DTITLE=MAKE-UP - ROCK LEGEND OF BOYS and GIRLS
DYEAR=1985
DGENRE=J-Metal
TTITLE0=PASSAGE
TTITLE1=KILL THE NIGHT
TTITLE2=DIRTY MAN
TTITLE3=MACHINE BABY
TTITLE4=WILD CHILD
TTITLE5=ROCK LEGEND
TTITLE6=REPLICANT BLUE
TTITLE7=TROUBLE
TTITLE8=MAN AND WOMAN
TTITLE9=ANY TIME
TTITLE10=PASSAGE -REPRISE-
EXTD=YEAR: 1985
EXTT0=
EXTT1=
EXTT2=
EXTT3=
EXTT4=
EXTT5=
EXTT6=
EXTT7=
EXTT8=
EXTT9=
EXTT10=
PLAYORDER=
